<svg width="38" height="38" viewBox="0 0 38 38" fill="none" xmlns="http://www.w3.org/2000/svg">
<path d="M0.748352 5.40588L18.8986 10.2112L37.1182 5.40588L37.5461 32.4357C30.2705 33.2109 26.1898 34.3156 18.8986 37.241C11.961 34.5367 7.99384 33.4467 0.748352 32.4357V5.40588Z" fill="#021634"/>
<path d="M17.7648 9.12678L1.73467 4.6256C1.73467 4.6256 4.3596 0.826296 6.50756 1.86448C8.65552 2.90267 17.7648 9.12678 17.7648 9.12678Z" fill="#021634"/>
<path d="M20.0031 9.12678L36.0332 4.6256C36.0332 4.6256 33.4082 0.826296 31.2603 1.86448C29.1123 2.90267 20.0031 9.12678 20.0031 9.12678Z" fill="#021634"/>
<path d="M17.7811 8.49109L8.77971 1.75589C8.77971 1.75589 11.6491 -0.131915 12.7015 1.03211C13.7539 2.19613 17.7811 8.49109 17.7811 8.49109Z" fill="#021634"/>
<path d="M19.9502 8.46987L28.9707 1.75711C28.9707 1.75711 26.1067 -0.137837 25.051 1.02356C23.9953 2.18496 19.9502 8.46987 19.9502 8.46987Z" fill="#021634"/>
</svg>
