<svg width="45" height="45" viewBox="0 0 45 45" fill="none" xmlns="http://www.w3.org/2000/svg">
<circle cx="22.699" cy="22.1673" r="22.1673" fill="#021634"/>
<path fill-rule="evenodd" clip-rule="evenodd" d="M9.43005 34.9446C10.2907 34.9446 10.9883 34.2419 10.9883 33.3751C10.9883 32.5082 10.2907 31.8055 9.43005 31.8055C8.56944 31.8055 7.87178 32.5082 7.87178 33.3751C7.87178 34.2419 8.56944 34.9446 9.43005 34.9446ZM9.43005 35.4678C10.5775 35.4678 11.5077 34.5308 11.5077 33.3751C11.5077 32.2193 10.5775 31.2823 9.43005 31.2823C8.28257 31.2823 7.35236 32.2193 7.35236 33.3751C7.35236 34.5308 8.28257 35.4678 9.43005 35.4678Z" fill="white"/>
<path fill-rule="evenodd" clip-rule="evenodd" d="M23.7431 27.8551C26.293 27.8551 28.3602 25.954 28.3602 23.609C28.3602 21.2639 26.293 19.3629 23.7431 19.3629C21.1931 19.3629 19.126 21.2639 19.126 23.609C19.126 25.954 21.1931 27.8551 23.7431 27.8551ZM23.7431 28.492C26.6755 28.492 29.0527 26.3058 29.0527 23.609C29.0527 20.9122 26.6755 18.726 23.7431 18.726C20.8106 18.726 18.4334 20.9122 18.4334 23.609C18.4334 26.3058 20.8106 28.492 23.7431 28.492Z" fill="white"/>
<path fill-rule="evenodd" clip-rule="evenodd" d="M19.635 26.286L11.1455 32.4696L10.7303 31.8562L19.2198 25.6726L19.635 26.286Z" fill="white"/>
<path fill-rule="evenodd" clip-rule="evenodd" d="M15.9716 7.10341C15.7498 7.93714 16.241 8.79411 17.0688 9.01751C17.8965 9.24091 18.7473 8.74613 18.9691 7.9124C19.1909 7.07867 18.6997 6.2217 17.872 5.9983C17.0442 5.7749 16.1934 6.26968 15.9716 7.10341ZM15.3301 6.93028C15.0134 8.12085 15.7149 9.34461 16.8969 9.66362C18.0789 9.98264 19.2939 9.2761 19.6106 8.08553C19.9273 6.89496 19.2259 5.6712 18.0438 5.35219C16.8618 5.03317 15.6468 5.73971 15.3301 6.93028Z" fill="white"/>
<path fill-rule="evenodd" clip-rule="evenodd" d="M21.3933 19.3489L17.7538 9.31723L18.5855 9.01111L22.225 19.0428L21.3933 19.3489Z" fill="white"/>
<path fill-rule="evenodd" clip-rule="evenodd" d="M35.5167 33.8811C34.8567 33.8811 34.3217 33.3422 34.3217 32.6775C34.3217 32.0127 34.8567 31.4738 35.5167 31.4738C36.1767 31.4738 36.7117 32.0127 36.7117 32.6775C36.7117 33.3422 36.1767 33.8811 35.5167 33.8811ZM35.5167 34.5377C34.4967 34.5377 33.6698 33.7048 33.6698 32.6775C33.6698 31.6501 34.4967 30.8173 35.5167 30.8173C36.5367 30.8173 37.3635 31.6501 37.3635 32.6775C37.3635 33.7048 36.5367 34.5377 35.5167 34.5377Z" fill="white"/>
<path fill-rule="evenodd" clip-rule="evenodd" d="M26.7188 27.0714L33.9381 32.1769L34.4469 31.447L27.2276 26.3415L26.7188 27.0714Z" fill="white"/>
<path fill-rule="evenodd" clip-rule="evenodd" d="M35.6934 16.0585C35.5336 16.581 34.9835 16.8741 34.4648 16.7131C33.946 16.5522 33.6551 15.9981 33.8149 15.4756C33.9747 14.9531 34.5248 14.66 35.0435 14.821C35.5623 14.982 35.8532 15.536 35.6934 16.0585ZM36.3281 16.2555C36.0603 17.131 35.1385 17.6221 34.2693 17.3524C33.4 17.0827 32.9124 16.1542 33.1802 15.2787C33.448 14.4031 34.3698 13.912 35.239 14.1818C36.1083 14.4515 36.5959 15.3799 36.3281 16.2555Z" fill="white"/>
<path fill-rule="evenodd" clip-rule="evenodd" d="M27.8257 21.5166L33.926 16.7498L33.3833 16.0452L27.2829 20.8119L27.8257 21.5166Z" fill="white"/>
</svg>
