<svg width="45" height="43" viewBox="0 0 45 43" fill="none" xmlns="http://www.w3.org/2000/svg">
<path d="M22.4773 42.2911C19.5954 42.2911 16.7416 41.7441 14.0791 40.6814C11.4165 39.6188 8.99723 38.0612 6.95939 36.0977C4.92155 34.1341 3.30504 31.8031 2.20217 29.2376C1.0993 26.6721 0.531657 23.9224 0.531657 21.1455C0.531657 18.3687 1.0993 15.619 2.20217 13.0535C3.30504 10.488 4.92155 8.15692 6.95939 6.19338C8.99724 4.22984 11.4165 2.67227 14.0791 1.60961C16.7416 0.546944 19.5954 -1.28844e-06 22.4773 -9.243e-07L22.4773 21.1455L22.4773 42.2911Z" fill="#021634"/>
<path d="M24.1654 42.2911C25.4069 42.2911 26.6362 42.0554 27.7831 41.5977C28.9301 41.1399 29.9722 40.469 30.8501 39.6231C31.7279 38.7773 32.4243 37.7731 32.8993 36.668C33.3744 35.5629 33.6189 34.3784 33.6189 33.1822C33.6189 31.986 33.3744 30.8015 32.8993 29.6964C32.4243 28.5913 31.7279 27.5871 30.8501 26.7413C29.9722 25.8954 28.9301 25.2245 27.7831 24.7667C26.6362 24.309 25.4069 24.0734 24.1654 24.0734L24.1654 33.1822L24.1654 42.2911Z" fill="#021634"/>
<path d="M24.1654 0C25.8023 0.211195 28.2169 0.650632 28.2169 0.760402C28.2169 0.870173 28.2169 24.0734 28.2169 24.0734C27.2041 23.4227 25.8536 23.0974 24.1654 23.0974V0Z" fill="#021634"/>
<path d="M35.9823 4.55439C34.2942 3.25314 30.2427 0.975916 28.2169 0.752686V5.53034C36.6576 4.22909 42.0596 12.6873 43.0725 13.9886C41.3843 9.10884 37.8835 6.01985 35.9823 4.55439Z" fill="#021634"/>
</svg>
