<svg width="28" height="28" viewBox="0 0 28 28" fill="none" xmlns="http://www.w3.org/2000/svg">
<path d="M14.0031 6.82116C10.0304 6.82116 6.82589 10.0263 6.82589 14C6.82589 17.9736 10.0304 21.1788 14.0031 21.1788C17.9759 21.1788 21.1803 17.9736 21.1803 14C21.1803 10.0263 17.9759 6.82116 14.0031 6.82116ZM14.0031 18.6672C11.4358 18.6672 9.33699 16.5742 9.33699 14C9.33699 11.4259 11.4296 9.33283 14.0031 9.33283C16.5767 9.33283 18.6693 11.4259 18.6693 14C18.6693 16.5742 16.5704 18.6672 14.0031 18.6672ZM23.148 6.52751C23.148 7.45845 22.3985 8.20195 21.4739 8.20195C20.5432 8.20195 19.7999 7.4522 19.7999 6.52751C19.7999 5.60282 20.5495 4.85306 21.4739 4.85306C22.3985 4.85306 23.148 5.60282 23.148 6.52751ZM27.9016 8.22694C27.7955 5.98394 27.2832 3.9971 25.6405 2.36015C24.0039 0.723196 22.0174 0.210867 19.7749 0.0984048C17.4638 -0.0328016 10.5363 -0.0328016 8.22511 0.0984048C5.98886 0.204619 4.00246 0.716948 2.35962 2.35391C0.716788 3.99086 0.210821 5.9777 0.0983827 8.2207C-0.0327942 10.5324 -0.0327942 17.4614 0.0983827 19.7731C0.204574 22.0161 0.716788 24.0029 2.35962 25.6399C4.00246 27.2768 5.9826 27.7892 8.22511 27.9016C10.5363 28.0328 17.4638 28.0328 19.7749 27.9016C22.0174 27.7954 24.0039 27.2831 25.6405 25.6399C27.2769 24.0029 27.7892 22.0161 27.9016 19.7731C28.0328 17.4614 28.0328 10.5387 27.9016 8.22694ZM24.9158 22.2534C24.4286 23.4782 23.4853 24.4215 22.2548 24.9151C20.412 25.6461 16.0395 25.4774 14.0031 25.4774C11.9668 25.4774 7.58797 25.6399 5.75149 24.9151C4.52717 24.4278 3.58395 23.4843 3.09046 22.2534C2.35962 20.4103 2.52828 16.0369 2.52828 14C2.52828 11.9632 2.36588 7.5834 3.09046 5.74652C3.57769 4.52194 4.52091 3.57849 5.75149 3.0849C7.59421 2.35391 11.9668 2.52259 14.0031 2.52259C16.0395 2.52259 20.4183 2.36015 22.2548 3.0849C23.4792 3.57224 24.4223 4.51568 24.9158 5.74652C25.6466 7.58966 25.4779 11.9632 25.4779 14C25.4779 16.0369 25.6466 20.4166 24.9158 22.2534Z" fill="white"/>
</svg>
